<svg width="156" height="154" viewBox="0 0 156 154" fill="none" xmlns="http://www.w3.org/2000/svg">
<g clip-path="url(#clip0_284_1186)">
<path d="M171.168 -15.4H-14.832V169.4H171.168V-15.4Z" fill="white"/>
<path fill-rule="evenodd" clip-rule="evenodd" d="M115.911 45.2078C109.87 47.8026 102.915 49.3448 95.5908 50.4982C104.063 47.1543 112.831 45.5692 115.171 37.9554L115.083 37.9712L115.087 37.9955L88.22 50.8298L85.4538 59.2264L80.9996 62.3305V63.8232L86.8135 59.8063L89.5902 52.0109L93.4983 49.6726L90.6477 53.0303L88.7486 61.4562L81.9522 64.1749C82.285 64.2232 82.6075 64.2796 82.8787 64.3401L82.952 64.3556L83.0239 64.3812C83.5647 64.5511 84.0241 64.6876 84.3258 64.7744C84.4497 64.8021 84.5801 64.833 84.7113 64.8685L84.7749 64.8853L84.8338 64.9064C85.3035 65.066 85.7245 65.2308 86.1275 65.4105L86.5434 65.5968L86.8125 65.9587C87.1939 66.4747 87.3725 67.217 87.3185 67.9212C89.971 68.0469 92.6193 67.761 94.777 66.6804C93.8206 66.5392 92.6623 66.1302 92.4587 65.2759C94.0686 66.0301 96.9583 65.9222 99.2415 65.0562C97.6445 64.4731 95.9627 64.0075 94.795 62.8166C96.7523 63.7728 100.782 63.3786 103.044 62.0867C101.333 61.3433 98.9574 60.9988 97.2534 60.0774C97.1315 60.0107 96.6933 59.9399 96.8467 59.7171C99.289 60.3768 103.559 59.8737 105.863 58.4286C103.606 57.8388 101.176 57.4923 99.0797 56.6746C104.956 56.3363 111.131 54.5986 113.61 51.3498C108.451 52.2373 103.807 53.0175 99.1723 53.2275C106.165 51.6788 113.553 49.9078 115.911 45.2078ZM72.3934 64.5122C72.6534 64.4111 72.9422 64.3247 73.2817 64.2473L66.3055 61.4562L64.4073 53.0303L61.5568 49.6726L65.4634 52.0109L68.2409 59.8063L74.3081 63.9982V62.5066L69.6018 59.2264L66.835 50.8298L39.9668 37.9955L39.97 37.9712L39.8848 37.9554C42.2219 45.5692 50.9895 47.1543 59.4643 50.4982C52.1385 49.3448 45.1859 47.8026 39.1445 45.2078C41.503 49.9078 48.8887 51.6788 55.8833 53.2275C51.2472 53.0175 46.6051 52.2373 41.4445 51.3498C43.9249 54.5986 50.0987 56.3363 55.9758 56.6746C53.8792 57.4923 51.4481 57.8388 49.1923 58.4286C51.4941 59.8737 55.7644 60.3768 58.2093 59.7171C58.3629 59.9399 57.9221 60.0107 57.8006 60.0774C56.0977 60.9988 53.72 61.3433 52.0103 62.0867C54.273 63.3786 58.3018 63.7728 60.2605 62.8166C59.0929 64.0075 57.4111 64.4731 55.8115 65.0562C58.0957 65.9222 60.985 66.0301 62.5947 65.2759C62.3913 66.1302 61.2351 66.5392 60.2786 66.6804C62.3039 67.6942 64.7623 68.0094 67.252 67.9397C68.6864 65.6898 71.2671 64.854 72.3934 64.5122ZM79.3079 97.3402C79.6367 97.5708 79.9218 97.8361 79.9925 98.2309C80.071 98.6996 79.6788 99.1954 79.2853 99.565C79.1906 99.6528 79.0558 99.7525 78.8899 99.868L78.8233 97.1022C79.122 97.2484 79.3039 97.3402 79.3079 97.3402ZM76.5314 91.4694C75.8696 91.1279 75.4176 90.8827 75.4176 90.8827C75.4014 90.8734 75.3917 90.8616 75.3798 90.8512C75.3405 90.8271 75.3007 90.801 75.2613 90.7794C74.8258 90.4668 74.49 90.1397 74.4714 89.8821C74.4559 89.8333 74.4472 89.782 74.4399 89.7369C74.4399 89.7327 74.4399 89.7287 74.4369 89.7204C74.4369 89.6998 74.4327 89.6757 74.4327 89.6527C74.3505 88.4997 76.5659 88.1624 76.5659 88.1624L76.5314 91.4694ZM81.0708 66.3181C81.3338 66.3181 81.5431 66.4931 81.5431 66.7047C81.5431 66.9206 81.3338 67.0887 81.0708 67.0887C80.8072 67.0887 80.5971 66.9206 80.5971 66.7047C80.5971 66.4931 80.8072 66.3181 81.0708 66.3181ZM82.6307 76.2444C81.1065 75.3244 78.9359 74.4712 78.9359 74.4712L79.0445 79.001C79.0445 79.001 81.7332 79.5025 81.1675 81.2909C81.1602 81.311 81.153 81.3351 81.1443 81.3499C81.1126 81.4459 81.0751 81.542 81.0202 81.6451L81.0099 81.6266C80.7814 81.9799 80.3485 82.3449 79.6013 82.7144C79.3668 82.8223 78.9571 82.9972 78.4927 83.1863L78.1712 69.6014C78.1712 69.6014 79.7023 69.758 80.1935 69.758V69.7472C82.688 70.2138 85.1521 69.3369 85.1521 69.3369C85.3055 69.0848 85.276 68.6866 85.1014 68.4761C85.7473 68.3427 85.6496 67.3036 85.4161 66.9864C85.0362 66.8179 84.6504 66.6698 84.2679 66.5392C84.1377 66.5059 84.0065 66.4747 83.8873 66.4474C83.5762 66.3576 83.0818 66.2124 82.4937 66.0265C81.6163 65.8294 79.9434 65.6748 79.9434 65.6748C79.76 65.6619 79.5281 65.6517 79.2609 65.6399V65.1193L79.278 64.4937C79.2728 64.4987 79.2661 64.5023 79.2609 64.5079V59.4153C78.7922 59.6257 78.2653 59.748 77.7068 59.748C77.1074 59.748 76.5417 59.6108 76.0479 59.3696V65.6425C75.7734 65.6589 75.4991 65.6758 75.2325 65.6954C75.2325 65.6954 74.1919 65.8099 73.9755 65.8659C73.6003 65.9397 73.2629 66.0265 72.9856 66.1374V66.1394C70.2672 66.9613 68.1525 68.3427 67.9868 71.2342C67.7521 75.3918 74.9814 77.6236 74.9814 77.6236L76.0095 77.9717L76.0479 73.6182C75.6918 73.5534 74.3707 73.2464 73.7745 72.2701C73.7083 72.1618 73.6768 72.0782 73.6633 72.0048C73.5812 71.7845 73.5424 71.5432 73.5709 71.2835C73.5709 71.2444 73.5812 71.2059 73.5894 71.1684C73.698 70.3415 74.4591 69.9762 75.1368 69.8159C75.1368 69.8153 75.1368 69.8153 75.1401 69.8103C75.3596 69.7225 76.0059 69.6712 76.7355 69.6393L76.6047 83.9474C76.2142 84.1008 75.9471 84.2047 75.9471 84.2047C75.5915 84.3469 75.2955 84.47 75.1126 84.5388C72.7412 85.4951 70.1811 86.3058 69.621 88.7337C69.5946 88.8422 69.576 88.9458 69.5687 89.0489C69.2961 92.4872 72.1775 94.0094 74.7459 95.2263C74.8068 95.2572 74.8728 95.2881 74.9338 95.3184C75.2196 95.4343 75.5885 95.5919 75.9853 95.7607C76.0188 95.7798 76.0479 95.7916 76.083 95.8074V95.7834C76.2142 95.8492 76.3496 95.9157 76.489 95.9775L76.442 101.286L76.0793 101.493L76.086 101.454C75.9346 101.535 75.7925 101.608 75.6567 101.677C75.5259 101.74 75.3984 101.793 75.2831 101.847C75.2831 101.847 70.8305 103.852 71.2501 106.688C71.4118 107.762 72.2669 108.743 73.0903 109.358C73.4185 109.595 73.7781 109.796 74.1541 109.972C74.5221 110.111 75.0547 110.318 75.6501 110.568V107.183C75.4246 107.053 75.248 106.918 75.1215 106.783C74.9178 106.45 74.9003 106.035 75.0579 105.658C75.2589 105.343 75.6624 105.016 76.069 104.746L75.8737 104.855C75.9326 104.816 75.9976 104.779 76.0638 104.74L76.069 104.746C76.1403 104.694 76.2612 104.62 76.4115 104.536L76.3443 111.288V113.199L76.3887 113.652V113.771C76.4741 114.29 76.5159 114.795 76.5159 115.285C75.9714 115.267 75.6184 115.166 75.6184 115.166C74.4559 114.8 73.6738 114.014 73.6738 114.014C73.6738 114.014 74.1439 115.252 75.5415 115.955C75.5679 115.973 75.5972 115.985 75.6277 115.996C75.6888 116.027 75.7518 116.058 75.821 116.085V116.081C76.0246 116.166 76.238 116.226 76.4519 116.273C76.4146 116.535 76.3655 116.788 76.3066 117.036L77.7042 122.242L79.079 117.036C79.03 116.761 78.9886 116.495 78.9674 116.24C79.03 116.226 79.0952 116.216 79.1529 116.2C79.4072 116.14 81.4454 115.589 82.1693 113.891C82.269 113.625 82.3383 113.338 82.3827 113.037C82.6023 111.352 81.3298 110.053 80.4762 109.385C80.2246 109.2 79.9818 109.031 79.76 108.893L79.8034 110.743C79.8034 110.743 79.8076 110.749 79.8189 110.757C79.9642 110.871 80.0851 111.014 80.1806 111.171C80.7039 111.874 81.3576 113.327 79.2118 114.618V114.613C79.1349 114.663 79.0558 114.701 78.9793 114.744C79.0181 114.375 79.076 114.021 79.1483 113.683L79.1612 113.199H79.1721V112.877H79.1694L79.1721 112.832V111.686L78.9711 103.248C79.2413 103.119 79.4195 103.033 79.4195 103.033C79.5172 102.992 79.6066 102.95 79.6867 102.918C81.2367 102.147 82.889 101.478 83.6784 100.133C84.2039 99.2303 84.2679 98.0703 84.0505 97.0102L84.038 97.0174C84.035 96.9717 84.0293 96.9255 84.0221 96.8818C83.9781 96.6986 83.9296 96.5143 83.8721 96.3408C83.1318 94.5694 80.2968 93.2059 79.1767 92.7214V92.7373C79.0243 92.6725 78.8709 92.6023 78.716 92.5335L78.5934 87.397C78.5934 87.397 81.2811 86.4177 83.264 85.3992H83.2517C83.2517 85.3992 86.1325 84.1045 86.0242 80.8895H86.0288C86.0242 80.6898 86.0127 80.4867 85.9931 80.2771C85.8278 78.6621 84.1884 77.2438 82.6307 76.2444ZM75.3958 57.0787C75.3917 57.1202 75.3881 57.1623 75.3881 57.2008C75.3881 58.29 76.4234 59.1709 77.7068 59.1709C78.9902 59.1709 80.0272 58.29 80.0272 57.2008C80.0272 57.1623 80.0199 57.1202 80.0199 57.0787C79.4195 57.461 78.6043 57.6967 77.7068 57.6967C76.8093 57.6967 75.9976 57.461 75.3958 57.0787ZM77.7068 57.3696C79.4005 57.3696 80.7721 56.3383 80.7721 55.0662C80.7721 53.7967 79.4005 52.7733 77.7068 52.7733C76.0188 52.7733 74.6436 53.7967 74.6436 55.0662C74.6436 56.3383 76.0188 57.3696 77.7068 57.3696Z" fill="#A7A5A6"/>
<path d="M118.874 50.1701C117.919 52.0362 116.064 54.6916 112.507 57.4137L112.502 57.4169C112.451 57.4558 112.394 57.4953 112.341 57.5338H116.772L118.527 57.5585C125.683 57.8214 131.4 63.6385 131.413 70.8091C131.4 78.1402 125.429 84.0712 118.052 84.0866H90.8872V111.074C90.8749 118.404 84.9058 124.338 77.5261 124.349C70.1483 124.338 64.1766 118.404 64.161 111.074L64.1643 84.0866H37.0017C29.6213 84.0712 23.6515 78.1402 23.6398 70.8091C23.6515 63.4799 29.6213 57.5477 37.0017 57.5338H42.6937C39.0341 54.7727 37.1327 52.0642 36.1637 50.1711C25.0641 50.6094 16.2083 59.6786 16.2051 70.8091C16.2083 82.2216 25.5129 91.4694 37.0017 91.4714H56.7279V111.074C56.7335 122.485 66.0408 131.733 77.5261 131.735C89.0117 131.733 98.3179 122.485 98.32 111.074V91.4714H118.052C129.537 91.4694 138.845 82.2216 138.848 70.8091C138.845 59.6734 129.977 50.6008 118.874 50.1701Z" fill="#51ADE5"/>
<path d="M89.5596 13.7373V13.7573C89.5596 13.7573 86.1347 11.0978 82.5707 12.5326V12.4941C80.5736 13.2282 78.4 14.9154 77.4417 18.7397C76.474 14.8791 74.2656 13.1937 72.2539 12.472C72.135 12.4283 72.0161 12.3862 71.8973 12.3519C71.826 12.3312 71.7548 12.3124 71.6829 12.2913C69.0903 11.6388 66.7011 12.9324 65.8131 13.5037C60.3348 17.2203 56.7311 23.4573 56.7311 30.5453L56.7305 43.046L64.1644 46.5994V30.5453C64.1711 25.1646 67.4055 20.5652 72.0353 18.4836C72.6729 18.228 74.398 17.6254 75.0578 18.3908C75.4282 18.7469 75.7557 19.3507 75.947 20.324C76.027 20.8768 76.2905 23.4485 75.0929 26.7477C74.6584 27.8586 74.2007 28.7683 73.888 29.3386C73.8043 29.4858 73.7274 29.6316 73.637 29.78C73.5548 29.9211 73.5042 30.0013 73.5042 30.0027C72.3374 31.4637 70.942 32.8846 70.0802 34.4858L69.9696 34.6911C69.9644 34.7029 69.9598 34.7132 69.9541 34.725C69.9491 34.7306 69.9418 34.7497 69.9319 34.7695C69.9137 34.806 69.8952 34.8465 69.8699 34.9021C69.7713 35.11 69.6818 35.32 69.6027 35.5339L69.4602 36.032C69.2891 36.6418 69.1492 37.4 69.1492 38.2417C69.1507 39.6725 69.5404 41.3398 70.8887 43.0368C70.9063 43.0605 70.9307 43.0923 70.957 43.1266C70.9782 43.1487 70.9895 43.1641 70.9987 43.1749C71.9836 44.3731 73.4793 45.4063 75.9153 45.8114L75.9216 45.8134L75.9269 45.8156C76.4683 45.9157 77.0036 45.968 77.5263 45.973L77.5564 45.9756L77.5862 45.973C78.1102 45.968 78.643 45.9157 79.1855 45.8156L79.1958 45.8114C81.6804 45.3967 83.1907 44.3316 84.1723 43.1026C85.153 41.87 85.5879 40.4415 85.772 39.3378L85.773 39.3183L85.7801 39.2941C85.7801 39.2941 85.7801 39.2941 85.7813 39.2808C85.7853 39.266 85.7909 39.2443 85.7962 39.2151C85.8075 39.1529 85.8236 39.0611 85.838 38.9436C85.8705 38.7053 85.9022 38.3608 85.9022 37.9452C85.9022 37.8784 85.9005 37.804 85.9005 37.726L85.8969 37.6592C85.8793 37.1403 85.8045 36.5371 85.6303 35.9037L85.6091 35.8313L85.6061 35.8209C85.4376 35.2434 85.1835 34.6474 84.8036 34.0627H84.7954L84.6188 33.7922C83.6845 32.338 82.3743 31.0176 81.3228 29.6424C81.1581 29.4274 81.0118 29.2107 80.8594 28.9951C80.8031 28.8977 78.6331 25.1718 78.818 21.2951C78.845 20.8768 78.8858 20.4604 78.958 20.0447C79.2303 18.946 79.7128 18.3984 80.2043 18.1283C81.2417 17.7106 83.2169 18.5899 83.2169 18.5899V18.5883C87.7393 20.71 90.8791 25.2462 90.8894 30.5453L90.8874 46.5994L98.3221 43.047V30.5453C98.3201 23.5995 94.8538 17.476 89.5596 13.7373Z" fill="#51ADE5"/>
<mask id="mask0_284_1186" style="mask-type:luminance" maskUnits="userSpaceOnUse" x="57" y="13" width="41" height="32">
<path d="M57.7598 13.1413H97.2848V44.9167H57.7598V13.1413Z" fill="white"/>
</mask>
<g mask="url(#mask0_284_1186)">
<mask id="mask1_284_1186" style="mask-type:luminance" maskUnits="userSpaceOnUse" x="57" y="13" width="41" height="32">
<path d="M77.5724 44.9048C77.0723 44.8986 76.5928 44.8515 76.1242 44.7617C74.2157 44.4454 72.8237 43.7051 71.8338 42.4988L71.7278 42.3694C70.7199 41.1015 70.2269 39.7494 70.2249 38.2381C70.2249 37.6057 70.3173 36.9594 70.4961 36.3193L70.6382 35.8244C70.68 35.724 70.7555 35.5391 70.8429 35.3588L70.8542 35.3302L70.9131 35.2038C70.9068 35.2157 70.8992 35.2291 70.8925 35.2413L70.9323 35.1663L70.9545 35.1212C70.9524 35.1268 70.9502 35.1314 70.9478 35.1361L71.0287 34.9857C71.5957 33.9359 72.4677 32.9077 73.3126 31.9113C73.6637 31.4966 74.0147 31.0813 74.3479 30.665C74.4068 30.5824 74.4728 30.4844 74.5721 30.3087C74.6212 30.2291 74.6801 30.1238 74.739 30.0182L74.8222 29.8678C75.1574 29.256 75.6406 28.3027 76.0957 27.1353C77.4065 23.5291 77.0879 20.7002 77.0134 20.171C76.9282 19.7357 76.817 19.3438 76.6802 18.9973H78.1682C78.0695 19.2408 77.9848 19.5061 77.9139 19.789C77.8245 20.2767 77.7755 20.7242 77.744 21.2299C77.544 25.43 79.8345 29.3689 79.9309 29.5347L80.0369 29.6897C80.1753 29.8908 80.3124 30.0905 80.4658 30.2897C80.8811 30.8339 81.3338 31.3677 81.7909 31.9043C82.4715 32.7065 83.1736 33.5335 83.7135 34.3697L83.8881 34.6412C84.193 35.0929 84.4187 35.5898 84.5723 36.1176C84.7256 36.6807 84.8031 37.1858 84.8207 37.6921L84.8249 37.8613C84.8264 38.3045 84.7979 38.6021 84.77 38.8074L84.7376 39.0205L84.7329 39.0518L84.7051 39.1854C84.5604 40.0522 84.1991 41.3428 83.327 42.4408C82.3367 43.68 80.9261 44.4392 79.0155 44.7574C78.5174 44.8515 78.0415 44.8986 77.5724 44.9048ZM91.962 44.8986L91.9636 30.5453C91.9543 24.9684 88.7774 20.0144 83.6758 17.6186C83.5032 17.5442 82.1211 16.9466 80.8831 16.9466C80.4797 16.9466 80.115 17.0104 79.8004 17.1365L79.7418 17.1598L79.6851 17.1894C79.3576 17.3687 79.0702 17.6053 78.8201 17.8953C79.6169 15.6879 80.999 14.2117 82.9421 13.497C83.544 13.2937 84.1553 13.1758 84.7886 13.1758C87.0139 13.1758 88.8796 14.5869 88.8983 14.6013C94.1362 18.2823 97.2445 24.2391 97.2475 30.5453V42.3747L91.962 44.8986ZM63.0882 44.8986L57.8047 42.3747L57.8073 30.5453C57.8073 24.0866 61.0266 18.0463 66.4181 14.3882C66.9679 14.034 68.4821 13.1808 70.2136 13.1808C70.6263 13.1808 71.032 13.2302 71.4189 13.3266L71.5006 13.3523C71.6824 13.4036 71.7775 13.4359 71.8715 13.4734C73.8591 14.1834 75.2634 15.6715 76.0674 17.9071C75.9847 17.8038 75.8973 17.7106 75.8055 17.6212C75.5786 17.3517 75.0196 16.9466 74.0276 16.9466C73.1725 16.9466 72.2534 17.244 71.6334 17.4928C66.4326 19.8285 63.0949 24.9444 63.0882 30.5423V44.8986Z" fill="white"/>
</mask>
<g mask="url(#mask1_284_1186)">
<mask id="mask2_284_1186" style="mask-type:luminance" maskUnits="userSpaceOnUse" x="57" y="13" width="41" height="32">
<path d="M77.5724 44.9048C77.0723 44.8986 76.5928 44.8515 76.1242 44.7617C74.2157 44.4454 72.8237 43.7051 71.8338 42.4988L71.7278 42.3694C70.7199 41.1015 70.2269 39.7494 70.2249 38.2381C70.2249 37.6057 70.3173 36.9594 70.4961 36.3193L70.6382 35.8244C70.68 35.724 70.7555 35.5391 70.8429 35.3588L70.8542 35.3302L70.9131 35.2038C70.9068 35.2157 70.8992 35.2291 70.8925 35.2413L70.9323 35.1663L70.9545 35.1212C70.9524 35.1268 70.9502 35.1314 70.9478 35.1361L71.0287 34.9857C71.5957 33.9359 72.4677 32.9077 73.3126 31.9113C73.6637 31.4966 74.0147 31.0813 74.3479 30.665C74.4068 30.5824 74.4728 30.4844 74.5721 30.3087C74.6212 30.2291 74.6801 30.1238 74.739 30.0182L74.8222 29.8678C75.1574 29.256 75.6406 28.3027 76.0957 27.1353C77.4065 23.5291 77.0879 20.7002 77.0134 20.171C76.9282 19.7357 76.817 19.3438 76.6802 18.9973H78.1682C78.0695 19.2408 77.9848 19.5061 77.9139 19.789C77.8245 20.2767 77.7755 20.7242 77.744 21.2299C77.544 25.43 79.8345 29.3689 79.9309 29.5347L80.0369 29.6897C80.1753 29.8908 80.3124 30.0905 80.4658 30.2897C80.8811 30.8339 81.3338 31.3677 81.7909 31.9043C82.4715 32.7065 83.1736 33.5335 83.7135 34.3697L83.8881 34.6412C84.193 35.0929 84.4187 35.5898 84.5723 36.1176C84.7256 36.6807 84.8031 37.1858 84.8207 37.6921L84.8249 37.8613C84.8264 38.3045 84.7979 38.6021 84.77 38.8074L84.7376 39.0205L84.7329 39.0518L84.7051 39.1854C84.5604 40.0522 84.1991 41.3428 83.327 42.4408C82.3367 43.68 80.9261 44.4392 79.0155 44.7574C78.5174 44.8515 78.0415 44.8986 77.5724 44.9048ZM91.962 44.8986L91.9636 30.5453C91.9543 24.9684 88.7774 20.0144 83.6758 17.6186C83.5032 17.5442 82.1211 16.9466 80.8831 16.9466C80.4797 16.9466 80.115 17.0104 79.8004 17.1365L79.7418 17.1598L79.6851 17.1894C79.3576 17.3687 79.0702 17.6053 78.8201 17.8953C79.6169 15.6879 80.999 14.2117 82.9421 13.497C83.544 13.2937 84.1553 13.1758 84.7886 13.1758C87.0139 13.1758 88.8796 14.5869 88.8983 14.6013C94.1362 18.2823 97.2445 24.2391 97.2475 30.5453V42.3747L91.962 44.8986ZM63.0882 44.8986L57.8047 42.3747L57.8073 30.5453C57.8073 24.0866 61.0266 18.0463 66.4181 14.3882C66.9679 14.034 68.4821 13.1808 70.2136 13.1808C70.6263 13.1808 71.032 13.2302 71.4189 13.3266L71.5006 13.3523C71.6824 13.4036 71.7775 13.4359 71.8715 13.4734C73.8591 14.1834 75.2634 15.6715 76.0674 17.9071C75.9847 17.8038 75.8973 17.7106 75.8055 17.6212C75.5786 17.3517 75.0196 16.9466 74.0276 16.9466C73.1725 16.9466 72.2534 17.244 71.6334 17.4928C66.4326 19.8285 63.0949 24.9444 63.0882 30.5423V44.8986Z" fill="white"/>
</mask>
<g mask="url(#mask2_284_1186)">
<path d="M57.8047 44.9048H97.2475V13.1758H57.8047V44.9048Z" fill="url(#paint0_linear_284_1186)"/>
</g>
</g>
</g>
<mask id="mask3_284_1186" style="mask-type:luminance" maskUnits="userSpaceOnUse" x="18" y="51" width="119" height="18">
<path d="M18.2871 51.2307H136.914V68.1193H18.2871V51.2307Z" fill="white"/>
</mask>
<g mask="url(#mask3_284_1186)">
<mask id="mask4_284_1186" style="mask-type:luminance" maskUnits="userSpaceOnUse" x="18" y="51" width="119" height="18">
<path d="M132.22 68.0752C130.967 61.6345 125.416 56.7414 118.568 56.4897L116.785 56.4657H115.296C117.38 54.5294 118.692 52.6989 119.497 51.278C127.775 51.8687 134.541 57.4532 136.883 64.991C135.412 66.0608 133.855 67.0897 132.22 68.0752ZM22.9234 67.6892C21.3065 66.6896 19.7701 65.6477 18.3184 64.5645C20.7802 57.2511 27.4301 51.8625 35.5415 51.278C36.3478 52.6989 37.6554 54.5268 39.7447 56.4657H37.0025C30.1298 56.4765 24.3694 61.2868 22.9234 67.6892Z" fill="white"/>
</mask>
<g mask="url(#mask4_284_1186)">
<mask id="mask5_284_1186" style="mask-type:luminance" maskUnits="userSpaceOnUse" x="18" y="51" width="119" height="18">
<path d="M132.22 68.0752C130.967 61.6345 125.416 56.7414 118.568 56.4897L116.785 56.4657H115.296C117.38 54.5294 118.692 52.6989 119.497 51.278C127.775 51.8687 134.541 57.4532 136.883 64.991C135.412 66.0608 133.855 67.0897 132.22 68.0752ZM22.9234 67.6892C21.3065 66.6896 19.7701 65.6477 18.3184 64.5645C20.7802 57.2511 27.4301 51.8625 35.5415 51.278C36.3478 52.6989 37.6554 54.5268 39.7447 56.4657H37.0025C30.1298 56.4765 24.3694 61.2868 22.9234 67.6892Z" fill="white"/>
</mask>
<g mask="url(#mask5_284_1186)">
<path d="M18.3184 68.0749H136.883V51.2774L18.3184 51.2776V68.0749Z" fill="url(#paint1_linear_284_1186)"/>
</g>
</g>
</g>
</g>
<defs>
<linearGradient id="paint0_linear_284_1186" x1="77.5264" y1="44.9049" x2="77.5264" y2="13.1757" gradientUnits="userSpaceOnUse">
<stop stop-color="#7BD4EF"/>
<stop offset="0.03125" stop-color="#7BD4EF"/>
<stop offset="0.046875" stop-color="#7BD4EF"/>
<stop offset="0.0507812" stop-color="#79D4EF"/>
<stop offset="0.0546875" stop-color="#78D3EF"/>
<stop offset="0.0585938" stop-color="#77D3EE"/>
<stop offset="0.0625" stop-color="#76D3EE"/>
<stop offset="0.0664062" stop-color="#75D2EF"/>
<stop offset="0.0703125" stop-color="#74D2EF"/>
<stop offset="0.0742188" stop-color="#74D2EF"/>
<stop offset="0.078125" stop-color="#73D2F0"/>
<stop offset="0.0820312" stop-color="#73D2F0"/>
<stop offset="0.0859375" stop-color="#72D1EF"/>
<stop offset="0.0898438" stop-color="#71D1EF"/>
<stop offset="0.09375" stop-color="#71D1EF"/>
<stop offset="0.0976562" stop-color="#71D1F0"/>
<stop offset="0.101562" stop-color="#70D0F0"/>
<stop offset="0.105469" stop-color="#70D0F0"/>
<stop offset="0.109375" stop-color="#6FCFF0"/>
<stop offset="0.113281" stop-color="#6FCFEF"/>
<stop offset="0.117188" stop-color="#6ECEEF"/>
<stop offset="0.121094" stop-color="#6DCEEF"/>
<stop offset="0.125" stop-color="#6CCDEF"/>
<stop offset="0.128906" stop-color="#6BCCEF"/>
<stop offset="0.132813" stop-color="#6BCCEF"/>
<stop offset="0.140625" stop-color="#6BCCEF"/>
<stop offset="0.144531" stop-color="#69CBEF"/>
<stop offset="0.148438" stop-color="#68CAEE"/>
<stop offset="0.152344" stop-color="#68C9EE"/>
<stop offset="0.15625" stop-color="#67C9EE"/>
<stop offset="0.160156" stop-color="#67C8EE"/>
<stop offset="0.164062" stop-color="#67C7EE"/>
<stop offset="0.167969" stop-color="#66C7EE"/>
<stop offset="0.171875" stop-color="#65C6EE"/>
<stop offset="0.175781" stop-color="#64C6ED"/>
<stop offset="0.179688" stop-color="#64C5ED"/>
<stop offset="0.183594" stop-color="#63C4ED"/>
<stop offset="0.1875" stop-color="#63C4EC"/>
<stop offset="0.191406" stop-color="#63C3EC"/>
<stop offset="0.195312" stop-color="#62C3EC"/>
<stop offset="0.199219" stop-color="#62C2EC"/>
<stop offset="0.203125" stop-color="#61C2EC"/>
<stop offset="0.207031" stop-color="#61C1EB"/>
<stop offset="0.210937" stop-color="#61C1EB"/>
<stop offset="0.214844" stop-color="#60C0EB"/>
<stop offset="0.21875" stop-color="#60C0EB"/>
<stop offset="0.222656" stop-color="#5FC0EB"/>
<stop offset="0.226562" stop-color="#5EBFEB"/>
<stop offset="0.230469" stop-color="#5EBEEB"/>
<stop offset="0.234375" stop-color="#5DBDEA"/>
<stop offset="0.238281" stop-color="#5DBDEA"/>
<stop offset="0.242188" stop-color="#5CBCEA"/>
<stop offset="0.25" stop-color="#5CBCEA"/>
<stop offset="0.253906" stop-color="#5BBBE9"/>
<stop offset="0.257812" stop-color="#5AB9E8"/>
<stop offset="0.261719" stop-color="#59B9E8"/>
<stop offset="0.265625" stop-color="#59B8E8"/>
<stop offset="0.269531" stop-color="#58B8E8"/>
<stop offset="0.273438" stop-color="#58B7E8"/>
<stop offset="0.28125" stop-color="#57B7E8"/>
<stop offset="0.285156" stop-color="#57B6E7"/>
<stop offset="0.289062" stop-color="#56B6E7"/>
<stop offset="0.292969" stop-color="#56B5E7"/>
<stop offset="0.296875" stop-color="#55B4E8"/>
<stop offset="0.304688" stop-color="#55B4E7"/>
<stop offset="0.3125" stop-color="#54B3E7"/>
<stop offset="0.316406" stop-color="#53B2E6"/>
<stop offset="0.320312" stop-color="#53B1E6"/>
<stop offset="0.324219" stop-color="#52B0E6"/>
<stop offset="0.328125" stop-color="#52B0E6"/>
<stop offset="0.332031" stop-color="#52AFE6"/>
<stop offset="0.335938" stop-color="#52AFE6"/>
<stop offset="0.339844" stop-color="#51AEE5"/>
<stop offset="0.34375" stop-color="#51ADE5"/>
<stop offset="0.347656" stop-color="#50ADE5"/>
<stop offset="0.351562" stop-color="#50ACE4"/>
<stop offset="0.355469" stop-color="#50ACE4"/>
<stop offset="0.359375" stop-color="#50ABE4"/>
<stop offset="0.363281" stop-color="#50AAE3"/>
<stop offset="0.367188" stop-color="#50A9E2"/>
<stop offset="0.371094" stop-color="#50A8E2"/>
<stop offset="0.375" stop-color="#4FA7E1"/>
<stop offset="0.378906" stop-color="#4FA6E1"/>
<stop offset="0.382812" stop-color="#4EA5E0"/>
<stop offset="0.386719" stop-color="#4EA4E0"/>
<stop offset="0.390625" stop-color="#4EA4DF"/>
<stop offset="0.394531" stop-color="#4EA3DF"/>
<stop offset="0.398438" stop-color="#4DA2DF"/>
<stop offset="0.402344" stop-color="#4DA2DF"/>
<stop offset="0.40625" stop-color="#4CA2DE"/>
<stop offset="0.410156" stop-color="#4CA1DE"/>
<stop offset="0.414062" stop-color="#4CA0DD"/>
<stop offset="0.417969" stop-color="#4C9FDD"/>
<stop offset="0.421875" stop-color="#4B9EDC"/>
<stop offset="0.429688" stop-color="#4B9EDC"/>
<stop offset="0.433594" stop-color="#4B9DDC"/>
<stop offset="0.4375" stop-color="#4B9CDB"/>
<stop offset="0.441406" stop-color="#4A9BDB"/>
<stop offset="0.445312" stop-color="#4A9BDA"/>
<stop offset="0.449219" stop-color="#4A9ADA"/>
<stop offset="0.453125" stop-color="#4A99DA"/>
<stop offset="0.457031" stop-color="#4A99D9"/>
<stop offset="0.460938" stop-color="#4998D9"/>
<stop offset="0.464844" stop-color="#4997D8"/>
<stop offset="0.46875" stop-color="#4896D8"/>
<stop offset="0.472656" stop-color="#4895D7"/>
<stop offset="0.476562" stop-color="#4895D7"/>
<stop offset="0.480469" stop-color="#4894D6"/>
<stop offset="0.484375" stop-color="#4793D6"/>
<stop offset="0.488281" stop-color="#4793D6"/>
<stop offset="0.492187" stop-color="#4692D5"/>
<stop offset="0.5" stop-color="#4692D5"/>
<stop offset="0.503906" stop-color="#4691D5"/>
<stop offset="0.507812" stop-color="#4590D4"/>
<stop offset="0.511719" stop-color="#4590D4"/>
<stop offset="0.515625" stop-color="#458FD3"/>
<stop offset="0.519531" stop-color="#458ED3"/>
<stop offset="0.523438" stop-color="#458DD3"/>
<stop offset="0.527344" stop-color="#458DD2"/>
<stop offset="0.53125" stop-color="#448CD2"/>
<stop offset="0.535156" stop-color="#448CD2"/>
<stop offset="0.539062" stop-color="#448BD1"/>
<stop offset="0.542969" stop-color="#448BD1"/>
<stop offset="0.546875" stop-color="#438AD1"/>
<stop offset="0.550781" stop-color="#4389D0"/>
<stop offset="0.554688" stop-color="#4288D0"/>
<stop offset="0.5625" stop-color="#4288CF"/>
<stop offset="0.566406" stop-color="#4287CF"/>
<stop offset="0.570312" stop-color="#4287CF"/>
<stop offset="0.574219" stop-color="#4286CE"/>
<stop offset="0.578125" stop-color="#4185CE"/>
<stop offset="0.582031" stop-color="#4184CD"/>
<stop offset="0.585938" stop-color="#4184CD"/>
<stop offset="0.589844" stop-color="#4183CC"/>
<stop offset="0.59375" stop-color="#4182CC"/>
<stop offset="0.601562" stop-color="#4082CC"/>
<stop offset="0.605469" stop-color="#4081CB"/>
<stop offset="0.609375" stop-color="#4081CB"/>
<stop offset="0.613281" stop-color="#4080CA"/>
<stop offset="0.617188" stop-color="#407FCA"/>
<stop offset="0.621094" stop-color="#3F7FCA"/>
<stop offset="0.625" stop-color="#3F7EC9"/>
<stop offset="0.628906" stop-color="#3F7EC9"/>
<stop offset="0.632812" stop-color="#3F7DC9"/>
<stop offset="0.636719" stop-color="#3F7CC8"/>
<stop offset="0.640625" stop-color="#3F7CC8"/>
<stop offset="0.648438" stop-color="#3E7BC8"/>
<stop offset="0.652344" stop-color="#3E7BC7"/>
<stop offset="0.65625" stop-color="#3E7BC7"/>
<stop offset="0.660156" stop-color="#3D7AC7"/>
<stop offset="0.664062" stop-color="#3D7AC6"/>
<stop offset="0.667969" stop-color="#3D79C6"/>
<stop offset="0.671875" stop-color="#3D79C6"/>
<stop offset="0.675781" stop-color="#3D78C5"/>
<stop offset="0.679688" stop-color="#3D78C5"/>
<stop offset="0.683594" stop-color="#3C77C5"/>
<stop offset="0.6875" stop-color="#3C77C5"/>
<stop offset="0.691406" stop-color="#3C76C4"/>
<stop offset="0.695312" stop-color="#3C76C4"/>
<stop offset="0.699219" stop-color="#3C76C4"/>
<stop offset="0.703125" stop-color="#3C75C4"/>
<stop offset="0.707031" stop-color="#3C75C3"/>
<stop offset="0.710938" stop-color="#3C74C3"/>
<stop offset="0.714844" stop-color="#3C74C3"/>
<stop offset="0.71875" stop-color="#3C73C2"/>
<stop offset="0.722656" stop-color="#3C73C2"/>
<stop offset="0.726562" stop-color="#3C72C2"/>
<stop offset="0.734375" stop-color="#3C72C2"/>
<stop offset="0.742188" stop-color="#3B72C1"/>
<stop offset="0.75" stop-color="#3B71C1"/>
<stop offset="0.753906" stop-color="#3B71C1"/>
<stop offset="0.757812" stop-color="#3B71C1"/>
<stop offset="0.761719" stop-color="#3B70C0"/>
<stop offset="0.765625" stop-color="#3B70C0"/>
<stop offset="0.769531" stop-color="#3B6FC0"/>
<stop offset="0.773438" stop-color="#3B6FC0"/>
<stop offset="0.777344" stop-color="#3B6FBF"/>
<stop offset="0.78125" stop-color="#3B6EBF"/>
<stop offset="0.796875" stop-color="#3B6EBF"/>
<stop offset="0.800781" stop-color="#3B6EBF"/>
<stop offset="0.804688" stop-color="#3A6DBE"/>
<stop offset="0.8125" stop-color="#3A6DBE"/>
<stop offset="0.875" stop-color="#3A6DBE"/>
<stop offset="1" stop-color="#3A6DBE"/>
</linearGradient>
<linearGradient id="paint1_linear_284_1186" x1="77.6006" y1="68.0748" x2="77.6006" y2="51.2775" gradientUnits="userSpaceOnUse">
<stop stop-color="#75D2EE"/>
<stop offset="0.0078125" stop-color="#75D2EF"/>
<stop offset="0.015625" stop-color="#74D2EF"/>
<stop offset="0.0234375" stop-color="#73D2F0"/>
<stop offset="0.03125" stop-color="#72D1F0"/>
<stop offset="0.0390625" stop-color="#71D1EF"/>
<stop offset="0.046875" stop-color="#71D1EF"/>
<stop offset="0.0546875" stop-color="#70D0F0"/>
<stop offset="0.0625" stop-color="#70D0F0"/>
<stop offset="0.0703125" stop-color="#6FCFEF"/>
<stop offset="0.0742188" stop-color="#6ECFEF"/>
<stop offset="0.078125" stop-color="#6ECEEF"/>
<stop offset="0.0820312" stop-color="#6DCEEF"/>
<stop offset="0.0859375" stop-color="#6CCDEF"/>
<stop offset="0.0898438" stop-color="#6CCDEF"/>
<stop offset="0.09375" stop-color="#6BCCEF"/>
<stop offset="0.109375" stop-color="#6BCCEF"/>
<stop offset="0.117188" stop-color="#6ACBEF"/>
<stop offset="0.121094" stop-color="#69CAEF"/>
<stop offset="0.125" stop-color="#68CAEE"/>
<stop offset="0.128906" stop-color="#68C9EE"/>
<stop offset="0.132812" stop-color="#67C9EE"/>
<stop offset="0.140625" stop-color="#67C8EE"/>
<stop offset="0.148438" stop-color="#67C8EE"/>
<stop offset="0.152344" stop-color="#66C7EE"/>
<stop offset="0.15625" stop-color="#66C7EE"/>
<stop offset="0.160156" stop-color="#65C6EE"/>
<stop offset="0.164062" stop-color="#64C6EE"/>
<stop offset="0.171875" stop-color="#64C6ED"/>
<stop offset="0.175781" stop-color="#63C5ED"/>
<stop offset="0.179688" stop-color="#63C4ED"/>
<stop offset="0.183594" stop-color="#63C4EC"/>
<stop offset="0.1875" stop-color="#63C3EC"/>
<stop offset="0.195312" stop-color="#62C3EC"/>
<stop offset="0.203125" stop-color="#62C3EC"/>
<stop offset="0.210938" stop-color="#61C2EC"/>
<stop offset="0.21875" stop-color="#61C1EB"/>
<stop offset="0.226562" stop-color="#60C1EB"/>
<stop offset="0.234375" stop-color="#60C0EB"/>
<stop offset="0.242188" stop-color="#5FBFEB"/>
<stop offset="0.246094" stop-color="#5EBFEB"/>
<stop offset="0.25" stop-color="#5EBEEB"/>
<stop offset="0.253906" stop-color="#5DBEEA"/>
<stop offset="0.257812" stop-color="#5DBDEA"/>
<stop offset="0.265625" stop-color="#5DBDEA"/>
<stop offset="0.273438" stop-color="#5CBCEA"/>
<stop offset="0.28125" stop-color="#5CBCE9"/>
<stop offset="0.285156" stop-color="#5BBAE9"/>
<stop offset="0.289062" stop-color="#5ABAE8"/>
<stop offset="0.292969" stop-color="#5AB9E8"/>
<stop offset="0.296875" stop-color="#59B8E8"/>
<stop offset="0.304688" stop-color="#59B8E8"/>
<stop offset="0.3125" stop-color="#58B8E8"/>
<stop offset="0.328125" stop-color="#57B7E8"/>
<stop offset="0.335938" stop-color="#57B6E7"/>
<stop offset="0.339844" stop-color="#56B5E7"/>
<stop offset="0.34375" stop-color="#56B5E7"/>
<stop offset="0.347656" stop-color="#55B4E7"/>
<stop offset="0.351562" stop-color="#55B4E8"/>
<stop offset="0.359375" stop-color="#55B4E7"/>
<stop offset="0.367188" stop-color="#54B3E7"/>
<stop offset="0.375" stop-color="#54B3E7"/>
<stop offset="0.378906" stop-color="#53B2E6"/>
<stop offset="0.382812" stop-color="#53B1E6"/>
<stop offset="0.386719" stop-color="#53B1E6"/>
<stop offset="0.390625" stop-color="#52B0E6"/>
<stop offset="0.398438" stop-color="#52B0E6"/>
<stop offset="0.40625" stop-color="#52AFE6"/>
<stop offset="0.410156" stop-color="#51AEE6"/>
<stop offset="0.414062" stop-color="#51AEE5"/>
<stop offset="0.417969" stop-color="#51ADE5"/>
<stop offset="0.421875" stop-color="#50ADE5"/>
<stop offset="0.425781" stop-color="#50ADE5"/>
<stop offset="0.429688" stop-color="#50ACE4"/>
<stop offset="0.4375" stop-color="#50ACE4"/>
<stop offset="0.441406" stop-color="#50ABE4"/>
<stop offset="0.445312" stop-color="#50ABE4"/>
<stop offset="0.449219" stop-color="#50AAE3"/>
<stop offset="0.453125" stop-color="#50AAE3"/>
<stop offset="0.457031" stop-color="#50A9E2"/>
<stop offset="0.460938" stop-color="#50A8E2"/>
<stop offset="0.464844" stop-color="#50A7E2"/>
<stop offset="0.46875" stop-color="#4FA7E1"/>
<stop offset="0.472656" stop-color="#4FA6E1"/>
<stop offset="0.476562" stop-color="#4FA5E0"/>
<stop offset="0.480469" stop-color="#4EA5E0"/>
<stop offset="0.484375" stop-color="#4EA4E0"/>
<stop offset="0.488281" stop-color="#4EA4E0"/>
<stop offset="0.492188" stop-color="#4EA3DF"/>
<stop offset="0.496094" stop-color="#4EA3DF"/>
<stop offset="0.5" stop-color="#4EA3DF"/>
<stop offset="0.507812" stop-color="#4DA2DF"/>
<stop offset="0.515625" stop-color="#4DA2DF"/>
<stop offset="0.519531" stop-color="#4CA1DE"/>
<stop offset="0.523438" stop-color="#4CA1DE"/>
<stop offset="0.527344" stop-color="#4CA0DD"/>
<stop offset="0.53125" stop-color="#4C9FDD"/>
<stop offset="0.535156" stop-color="#4C9FDD"/>
<stop offset="0.539062" stop-color="#4B9EDC"/>
<stop offset="0.546875" stop-color="#4B9EDC"/>
<stop offset="0.554687" stop-color="#4B9EDC"/>
<stop offset="0.558594" stop-color="#4B9DDC"/>
<stop offset="0.5625" stop-color="#4B9CDB"/>
<stop offset="0.566406" stop-color="#4A9CDB"/>
<stop offset="0.570313" stop-color="#4A9BDB"/>
<stop offset="0.574219" stop-color="#4A9BDA"/>
<stop offset="0.578125" stop-color="#4A9ADA"/>
<stop offset="0.582031" stop-color="#4A9ADA"/>
<stop offset="0.585937" stop-color="#4A99DA"/>
<stop offset="0.589844" stop-color="#4A99D9"/>
<stop offset="0.59375" stop-color="#4998D9"/>
<stop offset="0.597656" stop-color="#4998D9"/>
<stop offset="0.601563" stop-color="#4997D8"/>
<stop offset="0.605469" stop-color="#4997D8"/>
<stop offset="0.609375" stop-color="#4896D8"/>
<stop offset="0.613281" stop-color="#4896D7"/>
<stop offset="0.617187" stop-color="#4895D7"/>
<stop offset="0.621094" stop-color="#4895D7"/>
<stop offset="0.625" stop-color="#4894D7"/>
<stop offset="0.628906" stop-color="#4894D6"/>
<stop offset="0.632813" stop-color="#4793D6"/>
<stop offset="0.636719" stop-color="#4793D6"/>
<stop offset="0.640625" stop-color="#4792D6"/>
<stop offset="0.644531" stop-color="#4692D5"/>
<stop offset="0.648437" stop-color="#4692D5"/>
<stop offset="0.65625" stop-color="#4691D5"/>
<stop offset="0.664063" stop-color="#4691D5"/>
<stop offset="0.667969" stop-color="#4590D4"/>
<stop offset="0.671875" stop-color="#4590D4"/>
<stop offset="0.675781" stop-color="#458FD4"/>
<stop offset="0.679687" stop-color="#458FD3"/>
<stop offset="0.683594" stop-color="#458ED3"/>
<stop offset="0.6875" stop-color="#458ED3"/>
<stop offset="0.691406" stop-color="#458ED3"/>
<stop offset="0.695313" stop-color="#458DD2"/>
<stop offset="0.699219" stop-color="#448DD2"/>
<stop offset="0.703125" stop-color="#448CD2"/>
<stop offset="0.710937" stop-color="#448CD2"/>
<stop offset="0.71875" stop-color="#448BD1"/>
<stop offset="0.722656" stop-color="#448BD1"/>
<stop offset="0.726563" stop-color="#438AD1"/>
<stop offset="0.730469" stop-color="#438AD0"/>
<stop offset="0.734375" stop-color="#4389D0"/>
<stop offset="0.738281" stop-color="#4389D0"/>
<stop offset="0.742187" stop-color="#4288D0"/>
<stop offset="0.75" stop-color="#4288CF"/>
<stop offset="0.757813" stop-color="#4288CF"/>
<stop offset="0.761719" stop-color="#4287CF"/>
<stop offset="0.765625" stop-color="#4287CE"/>
<stop offset="0.769531" stop-color="#4286CE"/>
<stop offset="0.773437" stop-color="#4185CE"/>
<stop offset="0.777344" stop-color="#4185CD"/>
<stop offset="0.78125" stop-color="#4184CD"/>
<stop offset="0.785156" stop-color="#4184CD"/>
<stop offset="0.789063" stop-color="#4183CC"/>
<stop offset="0.792969" stop-color="#4183CC"/>
<stop offset="0.796875" stop-color="#4183CC"/>
<stop offset="0.8125" stop-color="#4082CC"/>
<stop offset="0.816406" stop-color="#4081CB"/>
<stop offset="0.820313" stop-color="#4081CB"/>
<stop offset="0.824219" stop-color="#4080CB"/>
<stop offset="0.828125" stop-color="#4080CA"/>
<stop offset="0.832031" stop-color="#407FCA"/>
<stop offset="0.835937" stop-color="#407FCA"/>
<stop offset="0.84375" stop-color="#3F7FCA"/>
<stop offset="0.847656" stop-color="#3F7EC9"/>
<stop offset="0.851563" stop-color="#3F7EC9"/>
<stop offset="0.855469" stop-color="#3F7DC9"/>
<stop offset="0.859375" stop-color="#3F7DC8"/>
<stop offset="0.863281" stop-color="#3F7CC8"/>
<stop offset="0.867187" stop-color="#3F7CC8"/>
<stop offset="0.875" stop-color="#3F7CC8"/>
<stop offset="0.882813" stop-color="#3E7BC7"/>
<stop offset="0.890625" stop-color="#3E7BC7"/>
<stop offset="0.898437" stop-color="#3E7BC7"/>
<stop offset="0.90625" stop-color="#3D7AC7"/>
<stop offset="0.910156" stop-color="#3D79C6"/>
<stop offset="0.914063" stop-color="#3D79C6"/>
<stop offset="0.917969" stop-color="#3D79C6"/>
<stop offset="0.921875" stop-color="#3D78C5"/>
<stop offset="0.929687" stop-color="#3D78C5"/>
<stop offset="0.9375" stop-color="#3D77C5"/>
<stop offset="0.945313" stop-color="#3C77C5"/>
<stop offset="0.953125" stop-color="#3C76C4"/>
<stop offset="0.960937" stop-color="#3C76C4"/>
<stop offset="0.96875" stop-color="#3C75C4"/>
<stop offset="0.976563" stop-color="#3C75C3"/>
<stop offset="0.980469" stop-color="#3C74C3"/>
<stop offset="0.984375" stop-color="#3C74C3"/>
<stop offset="0.988281" stop-color="#3C73C2"/>
<stop offset="0.992187" stop-color="#3C73C2"/>
<stop offset="0.996094" stop-color="#3C72C2"/>
<stop offset="1" stop-color="#3C72C2"/>
</linearGradient>
<clipPath id="clip0_284_1186">
<rect width="155" height="154" fill="white" transform="translate(0.667969)"/>
</clipPath>
</defs>
</svg>
