<svg width="58" height="45" viewBox="0 0 58 45" fill="none" xmlns="http://www.w3.org/2000/svg">
<path d="M11.2778 6.42857C8.60938 6.42857 6.44444 8.58817 6.44444 11.25V22.5H16.1111V11.25C16.1111 8.58817 13.9462 6.42857 11.2778 6.42857ZM0 11.25C0 5.03237 5.04479 0 11.2778 0C17.5108 0 22.5556 5.03237 22.5556 11.25V33.75C22.5556 39.9676 17.5108 45 11.2778 45C5.04479 45 0 39.9676 0 33.75V11.25ZM55.8754 36.904C55.1604 38.1395 53.4889 38.2199 52.4719 37.2154L33.5816 18.3717C32.5747 17.3672 32.6451 15.6897 33.8937 14.9766C36.25 13.6306 38.9788 12.8571 41.8889 12.8571C50.7903 12.8571 58 20.0491 58 28.9286C58 31.8315 57.2247 34.5536 55.8754 36.904ZM49.884 42.8806C47.5278 44.2266 44.799 45 41.8889 45C32.9875 45 25.7778 37.808 25.7778 28.9286C25.7778 26.0257 26.5531 23.3036 27.9024 20.9531C28.6174 19.7176 30.2889 19.6373 31.3059 20.6417L50.1962 39.4855C51.2031 40.49 51.1326 42.1674 49.884 42.8806Z" fill="#3678E8"/>
</svg>
