<svg width="86" height="67" viewBox="0 0 86 67" fill="none" xmlns="http://www.w3.org/2000/svg">
<path d="M16.7222 9.57143C12.7656 9.57143 9.55556 12.7868 9.55556 16.75V33.5H23.8889V16.75C23.8889 12.7868 20.6788 9.57143 16.7222 9.57143ZM0 16.75C0 7.49263 7.48021 0 16.7222 0C25.9642 0 33.4444 7.49263 33.4444 16.75V50.25C33.4444 59.5074 25.9642 67 16.7222 67C7.48021 67 0 59.5074 0 50.25V16.75ZM82.8497 54.946C81.7896 56.7855 79.3111 56.9051 77.8031 55.4096L49.7934 27.3533C48.3003 25.8578 48.4049 23.3603 50.2562 22.2984C53.75 20.2944 57.7962 19.1429 62.1111 19.1429C75.3097 19.1429 86 29.8509 86 43.0714C86 47.3935 84.8503 51.4464 82.8497 54.946ZM73.966 63.8444C70.4722 65.8484 66.426 67 62.1111 67C48.9125 67 38.2222 56.292 38.2222 43.0714C38.2222 38.7493 39.3719 34.6964 41.3726 31.1969C42.4326 29.3574 44.9111 29.2377 46.4191 30.7333L74.4288 58.7895C75.9219 60.285 75.8174 62.7826 73.966 63.8444Z" fill="white"/>
</svg>
